<svg width="512" height="512" xmlns="http://www.w3.org/2000/svg">

 <g>
  <title>background</title>
  <rect fill="none" id="canvas_background" height="402" width="582" y="-1" x="-1"/>
 </g>
 <g>
  <title>Layer 1</title>
  <g id="svg_1">
   <path id="svg_2" fill="#c4c4c4" d="m422.953,176.019c0.549,-0.48 1.09,-0.975 1.612,-1.498l21.772,-21.772c12.883,-12.883 12.883,-33.771 0,-46.654l-40.434,-40.434c-12.883,-12.883 -33.771,-12.883 -46.653,0l-21.772,21.772c-0.523,0.523 -1.018,1.064 -1.498,1.613l86.973,86.973z"/>
   <polygon id="svg_3" points="114.317,397.684 157.317,440.684 106.658,448.342 56,456 63.658,405.341 71.316,354.683  " fill="#c4c4c4"/>
   <polygon id="svg_4" points="349.143,125.535 118.982,355.694 106.541,343.253 336.701,113.094 324.26,100.653 81.659,343.253    168.747,430.341 411.348,187.74  " fill="#c4c4c4"/>
  </g>
 </g>
</svg>