<?xml version="1.0" standalone="no"?>
<!DOCTYPE svg PUBLIC "-//W3C//DTD SVG 20010904//EN"
 "http://www.w3.org/TR/2001/REC-SVG-20010904/DTD/svg10.dtd">
<svg version="1.0" xmlns="http://www.w3.org/2000/svg"
 width="840.000000pt" height="859.000000pt" viewBox="0 0 840.000000 859.000000"
 preserveAspectRatio="xMidYMid meet">
<metadata>
Created by potrace 1.16, written by Peter Selinger 2001-2019
</metadata>
<g transform="translate(0.000000,859.000000) scale(0.100000,-0.100000)"
fill="#000000" stroke="none">
<path d="M1937 8555 c-237 -40 -452 -151 -622 -319 -172 -172 -279 -377 -320
-612 -13 -79 -15 -456 -13 -3364 l3 -3275 27 -100 c38 -139 130 -318 219 -428
163 -202 402 -348 659 -404 81 -17 186 -18 2320 -18 l2235 0 91 22 c392 93
688 352 827 723 72 193 67 -85 67 3520 0 3615 6 3326 -70 3526 -146 389 -479
662 -890 729 -84 13 -359 15 -2275 14 -1744 -1 -2196 -4 -2258 -14z m4493
-359 c278 -50 505 -246 604 -524 l31 -87 0 -3285 0 -3285 -31 -87 c-95 -266
-307 -457 -575 -520 -43 -10 -517 -13 -2259 -13 -2473 0 -2247 -7 -2415 74
-197 94 -336 252 -412 466 l-28 80 0 3280 0 3280 29 88 c65 198 203 362 385
455 90 47 156 69 236 81 33 5 1028 9 2210 9 1758 1 2164 -1 2225 -12z"/>
<path d="M2137 7596 c-48 -18 -74 -41 -98 -88 -18 -35 -19 -70 -19 -732 0
-467 3 -704 11 -723 5 -15 22 -41 37 -56 58 -61 -104 -57 2131 -57 1424 0
2058 3 2078 11 38 14 83 57 99 96 11 26 14 160 14 728 0 663 -1 698 -19 733
-24 47 -50 70 -98 88 -57 20 -4079 20 -4136 0z m3893 -821 l0 -475 -1825 0
-1825 0 0 468 c0 258 3 472 7 475 3 4 825 7 1825 7 l1818 0 0 -475z"/>
<path d="M2592 5345 c-113 -25 -223 -86 -310 -173 -87 -87 -131 -156 -170
-264 -22 -63 -26 -90 -26 -198 -1 -112 2 -134 28 -214 160 -488 796 -614 1129
-223 112 131 164 286 154 466 -9 175 -64 299 -192 426 -164 164 -385 229 -613
180z m332 -269 c89 -44 155 -111 199 -204 30 -62 32 -74 31 -172 0 -92 -3
-112 -27 -164 -37 -80 -89 -141 -159 -186 -268 -174 -618 1 -645 322 -8 88 16
178 67 256 84 131 212 195 373 188 77 -3 98 -8 161 -40z"/>
<path d="M4095 5354 c-72 -15 -118 -31 -177 -59 -230 -111 -372 -336 -372
-590 0 -118 19 -200 70 -302 64 -128 166 -228 299 -294 187 -93 393 -92 585 2
68 34 102 59 170 128 138 139 194 276 193 471 0 85 -5 120 -26 185 -77 236
-273 412 -505 455 -54 10 -196 12 -237 4z m248 -258 c192 -68 303 -253 275
-459 -32 -238 -282 -405 -513 -343 -146 39 -268 157 -305 296 -19 71 -14 188
10 253 81 216 318 328 533 253z"/>
<path d="M5502 5340 c-212 -56 -387 -220 -463 -437 -30 -84 -37 -247 -15 -347
70 -315 364 -534 687 -513 369 24 642 338 615 709 -11 164 -74 299 -195 418
-165 163 -406 228 -629 170z m321 -249 c166 -65 279 -242 264 -418 -23 -272
-284 -452 -538 -373 -120 37 -212 118 -266 236 -24 52 -27 72 -27 164 -1 98 1
110 31 172 55 116 164 209 279 237 63 16 192 7 257 -18z"/>
<path d="M2600 3905 c-36 -8 -108 -36 -160 -62 -159 -80 -268 -209 -331 -390
-28 -82 -36 -237 -15 -332 53 -248 254 -451 502 -506 112 -25 264 -17 364 20
198 73 345 227 416 435 15 43 19 84 19 190 0 121 -3 143 -27 208 -38 104 -83
176 -158 252 -124 125 -270 189 -445 196 -64 2 -123 -1 -165 -11z m277 -250
c67 -20 167 -96 210 -159 80 -118 95 -282 36 -408 -77 -165 -227 -256 -408
-246 -356 19 -525 452 -274 707 115 116 274 155 436 106z"/>
<path d="M4050 3900 c-132 -35 -215 -83 -310 -179 -139 -139 -195 -276 -193
-471 0 -84 6 -121 27 -185 67 -207 219 -364 426 -437 56 -19 85 -23 205 -23
127 0 147 3 213 27 103 37 174 82 251 158 222 220 261 564 92 822 -54 83 -148
175 -224 218 -139 80 -341 109 -487 70z m231 -230 c129 -24 245 -115 306 -238
26 -52 28 -66 28 -172 0 -108 -2 -119 -31 -181 -40 -84 -114 -158 -201 -201
-64 -31 -73 -33 -178 -33 -105 0 -114 2 -178 33 -169 83 -261 256 -236 442 13
88 51 164 119 231 105 106 229 145 371 119z"/>
<path d="M5535 3905 c-232 -51 -410 -208 -493 -437 -24 -65 -27 -87 -27 -208
0 -106 4 -147 19 -190 60 -178 184 -324 336 -398 111 -54 184 -72 296 -72 186
0 336 62 470 195 65 65 90 98 123 167 97 199 95 395 -5 598 -37 74 -62 109
-119 165 -157 156 -392 226 -600 180z m217 -236 c241 -51 391 -298 319 -528
-39 -125 -112 -209 -229 -264 -62 -30 -75 -32 -173 -32 -101 0 -108 1 -180 37
-93 46 -158 112 -202 206 -29 62 -32 75 -32 167 1 80 5 111 24 158 47 120 156
216 279 248 80 21 123 23 194 8z"/>
<path d="M2657 2469 c-152 -20 -289 -91 -398 -208 -391 -417 -95 -1104 476
-1105 115 -1 181 13 280 59 142 65 250 171 320 310 52 106 68 189 62 320 -6
117 -21 174 -75 280 -121 237 -393 378 -665 344z m258 -274 c67 -32 145 -101
181 -157 134 -212 49 -499 -180 -604 -166 -76 -351 -40 -475 91 -183 193 -152
486 67 637 78 54 135 69 247 66 87 -3 108 -7 160 -33z"/>
<path d="M4124 2469 c-145 -16 -277 -83 -391 -197 -140 -140 -213 -354 -184
-541 41 -262 206 -462 452 -546 74 -25 98 -29 204 -28 104 0 131 3 200 27 334
114 522 447 443 786 -5 25 -30 87 -55 139 -118 248 -385 391 -669 360z m258
-276 c168 -79 259 -250 236 -440 -10 -89 -49 -165 -117 -234 -206 -205 -548
-147 -676 115 -49 100 -49 260 1 358 53 106 119 167 231 214 51 21 71 24 158
22 89 -3 108 -7 167 -35z"/>
<path d="M5590 2469 c-178 -21 -342 -117 -458 -269 -38 -49 -94 -174 -108
-239 -66 -311 85 -615 371 -746 101 -47 166 -60 285 -59 205 2 377 87 508 250
158 198 185 471 70 704 -56 114 -178 238 -288 292 -117 58 -255 82 -380 67z
m262 -278 c259 -128 317 -469 115 -672 -182 -181 -483 -160 -634 45 -119 161
-108 384 24 527 99 106 180 140 328 136 90 -2 107 -6 167 -36z"/>
</g>
</svg>
