<svg xmlns="http://www.w3.org/2000/svg" version="1.0" width="820" height="512" preserveAspectRatio="xMidYMid meet" style=""><rect id="backgroundrect" width="100%" height="100%" x="0" y="0" fill="none" stroke="none"/>
<metadata>
Created by potrace 1.16, written by Peter Selinger 2001-2019
</metadata>

<g class="currentLayer" style=""><title>Layer 1</title><g transform="translate(0,512) scale(0.10000000149011612,-0.10000000149011612) " fill="#000000" stroke="none" id="svg_1" class="selected">
<path d="M3737.322226711891,4551.751964288127 c-736.369941789673,-89.3947048674706 -1590.9227137431205,-439.3977018909572 -2456.0816371215215,-1007.5843853706431 c-396.97309619114066,-260.608292156016 -956.0687927351516,-692.4301716005772 -1034.8573461776682,-800.0068503393977 c-43.93977018909571,-60.60657957116651 -43.93977018909571,-203.03204156340777 0,-263.6386211345743 c78.78855344251646,-107.57667873882056 595.4596442867107,-507.58010390851945 1013.6450433277596,-784.8552054466061 c813.6433307429102,-539.3985581833819 1593.953042721679,-874.2499103140772 2333.35331348991,-1003.0388919028055 c213.6381929883619,-36.36394774269991 771.2187250430937,-36.36394774269991 984.8569180314556,0 c728.7941193432773,127.27381709944964 1510.6189958113248,460.6100047408654 2310.625846150723,986.372082520735 c396.97309619114066,262.1234566452951 959.0991217137098,695.4605005791357 1036.3725106669472,801.522014828677 c24.2426318284666,31.81845427486241 31.81845427486241,66.66723752828317 31.81845427486241,131.81931056728715 c0,112.12217220665804 -16.66680938207079,134.84963954584546 -213.6381929883619,301.51773336655333 c-728.7941193432773,615.15678264734 -1681.8325830998706,1174.2524791913506 -2430.3238408037764,1428.80011339025 c-213.6381929883619,71.21273099612064 -534.8530647155443,154.54677790647455 -727.278954853998,187.8803966706162 c-169.69842279926624,27.272960807024926 -681.8240201756232,40.90944121053738 -848.492113996331,21.212302849908284 zm689.3998426220192,-574.2473414368027 c150.00128443863707,-40.90944121053738 228.78983788115352,-71.21273099612064 325.7603651950199,-125.75865261017049 c381.821451298349,-213.6381929883619 625.7629340722942,-543.9440516512194 712.1273099612065,-969.7052731386642 c109.0918432280997,-531.8227357369861 -109.0918432280997,-1087.8881033024388 -553.0350385868944,-1407.5878105403422 c-177.27424524566206,-128.7889815887288 -357.5788194698824,-204.547206052687 -587.8838218403149,-248.48697624178266 c-624.247769583015,-118.18283016377468 -1296.9808028229631,250.00214073106181 -1534.8616276397915,840.9162915499353 c-245.45664726322428,606.065795711665 -62.121744060445664,1287.889815887288 448.48868882663214,1665.1657737177995 c189.39556115989532,140.91029750296212 340.9120100878116,209.0926995205244 572.7321769475234,260.608292156016 c166.66809382070792,36.36394774269991 454.5493467837488,30.303289785583257 616.6719471366193,-15.151644892791627 zm-2025.77492216624,-478.7919786122155 c-156.06194239575376,-296.9722398987159 -216.6685219669203,-545.4592161404985 -216.6685219669203,-886.3712262283102 c1.515164489279163,-350.0029970234866 57.576250592608176,-583.3383283724775 219.6988509454786,-889.4015552068687 c40.90944121053738,-77.27338895323726 69.69756650684147,-140.91029750296212 66.66723752828317,-140.91029750296212 c-36.36394774269991,0 -495.4587879942861,254.5476341988993 -786.3703699358855,436.3673729123988 c-280.30543051664506,175.75908075638284 -825.7646466571437,568.1866834796859 -825.7646466571437,593.9444797974318 c0,24.2426318284666 563.6411900118485,431.82187944456115 833.3404691035394,601.5203022438275 c242.42631828466605,153.03161341719542 739.4002707682312,427.2763859767238 775.7642185109312,428.791550466003 c4.545493467837488,0 -24.2426318284666,-65.152073039004 -66.66723752828317,-143.94062648152047 zm3524.2726020633313,31.81845427486241 c324.2452007057408,-169.69842279926624 578.79283490464,-324.2452007057408 872.7347458247976,-528.7924067584277 c231.8201668597119,-162.1226003528704 515.1559263549152,-375.7607933412324 515.1559263549152,-389.39727374474467 c0,-22.727467339187438 -500.00428146212363,-387.8821092554656 -751.5215866824648,-550.0047096083359 c-259.0931276667368,-165.15292933142874 -821.2191531893061,-480.3071431014945 -859.0982654212854,-480.3071431014945 c-4.545493467837488,0 25.75779631774576,65.152073039004 68.18240201756231,143.94062648152047 c154.54677790647455,295.45707540943664 215.15335747764112,542.4288871619401 215.15335747764112,886.3712262283102 c1.515164489279163,340.9120100878116 -59.09141508188734,589.3989863295942 -215.15335747764112,886.3712262283102 c-42.42460569981656,78.78855344251646 -72.72789548539981,143.94062648152047 -68.18240201756231,143.94062648152047 c6.060657957116651,0 106.06151424954137,-50.00042814621236 222.72917992403686,-112.12217220665804 z" id="svg_2"/>
<path d="M3900.959991554041,3391.135965500287 c-139.39513301368294,-33.33361876414158 -266.66895011313267,-106.06151424954137 -377.27595783051146,-216.6685219669203 c-319.69970723790317,-319.69970723790317 -319.69970723790317,-804.5523438072352 0,-1124.2520510451388 c319.69970723790317,-319.69970723790317 804.5523438072352,-319.69970723790317 1124.2520510451388,0 c319.69970723790317,319.69970723790317 319.69970723790317,804.5523438072352 0,1124.2520510451388 c-201.51687707412864,201.51687707412864 -478.7919786122155,281.82059500592425 -746.976093214627,216.6685219669203 zm234.85049583827018,-251.51730522034097 c48.4852636569332,-25.75779631774576 69.69756650684147,-59.09141508188734 71.21273099612064,-112.12217220665804 c0,-62.121744060445664 -51.51559263549152,-107.57667873882056 -136.36480403512462,-121.21315914233303 c-165.15292933142874,-25.75779631774576 -254.5476341988993,-115.15250118521635 -278.7902660273659,-281.82059500592425 c-18.181973871349953,-118.18283016377468 -127.27381709944964,-174.24391626710369 -203.03204156340777,-103.03118527098304 c-45.454934678374876,43.93977018909571 -54.54592161404985,89.3947048674706 -33.33361876414158,192.42589013845364 c24.2426318284666,118.18283016377468 83.33404691035396,222.72917992403686 166.66809382070792,295.45707540943664 c81.81888242107476,72.72789548539981 125.75865261017049,96.9705273138664 230.3050023704327,124.24348812089133 c100.00085629242471,27.272960807024926 140.91029750296212,28.788125296304088 183.33490320277866,6.060657957116651 z" id="svg_3"/>
</g></g></svg>